<?xml version="1.0"?>
<svg xmlns="http://www.w3.org/2000/svg" xmlns:xlink="http://www.w3.org/1999/xlink" version="1.1" viewBox="0 0 224 224" width="64px" height="64px"><g fill="none" fill-rule="none" stroke="none" stroke-width="1" stroke-linecap="butt" stroke-linejoin="miter" stroke-miterlimit="10" stroke-dasharray="" stroke-dashoffset="0" font-family="none" font-weight="none" font-size="none" text-anchor="none" style="mix-blend-mode: normal"><path d="M0,224v-224h224v224z" fill="none" fill-rule="nonzero"/><path d="M112,224c-61.85589,0 -112,-50.14411 -112,-112v0c0,-61.85589 50.14411,-112 112,-112v0c61.85589,0 112,50.14411 112,112v0c0,61.85589 -50.14411,112 -112,112z" fill="#ec9907" fill-rule="nonzero"/><g fill="#ffffff" fill-rule="evenodd"><g id="surface1"><path d="M112,37.24c-41.16915,0 -74.52659,33.35744 -74.52659,74.52659c0,32.92076 21.34876,60.86823 50.97017,70.71778c3.73604,0.67928 5.09459,-1.60116 5.09459,-3.59047c0,-1.77098 -0.07278,-6.45315 -0.09704,-12.6637c-20.74226,4.4881 -25.10906,-9.9951 -25.10906,-9.9951c-3.39639,-8.61228 -8.27264,-10.91698 -8.27264,-10.91698c-6.76853,-4.60939 0.50946,-4.51236 0.50946,-4.51236c7.47207,0.53372 11.40218,7.66615 11.40218,7.66615c6.64723,11.40218 17.4429,8.10283 21.6884,6.21055c0.67928,-4.82773 2.62008,-8.10282 4.73069,-9.97084c-16.54529,-1.86802 -33.93968,-8.27265 -33.93968,-36.82662c0,-8.15135 2.91119,-14.79857 7.66615,-20.01446c-0.75206,-1.86802 -3.32361,-9.46139 0.7278,-19.72334c0,0 6.25907,-1.98932 20.49966,7.64188c5.94369,-1.64968 12.32406,-2.47451 18.65591,-2.49877c6.33185,0.02426 12.71222,0.84909 18.65591,2.49877c14.2406,-9.6312 20.4754,-7.64188 20.4754,-7.64188c4.07567,10.26196 1.52838,17.85533 0.75206,19.72334c4.77921,5.21589 7.64189,11.86312 7.64189,20.01446c0,28.62675 -17.41865,34.91008 -34.01246,36.7781c2.6686,2.28044 5.04607,6.84131 5.04607,13.77966c0,9.97084 -0.07278,18.00089 -0.07278,20.45115c0,1.98931 1.33429,4.31827 5.11885,3.59047c29.59715,-9.8738 50.92165,-37.79702 50.92165,-70.71778c0,-41.16915 -33.35744,-74.52659 -74.52659,-74.52659z"/></g></g></g></svg>
